<svg width="72" height="72" viewBox="0 0 72 72" fill="none" xmlns="http://www.w3.org/2000/svg">
<path d="M27 49.5C24.9 49.5 23.125 48.775 21.675 47.325C20.225 45.875 19.5 44.1 19.5 42C19.5 39.9 20.225 38.125 21.675 36.675C23.125 35.225 24.9 34.5 27 34.5C29.1 34.5 30.875 35.225 32.325 36.675C33.775 38.125 34.5 39.9 34.5 42C34.5 44.1 33.775 45.875 32.325 47.325C30.875 48.775 29.1 49.5 27 49.5ZM15 66C13.35 66 11.9375 65.4125 10.7625 64.2375C9.5875 63.0625 9 61.65 9 60V18C9 16.35 9.5875 14.9375 10.7625 13.7625C11.9375 12.5875 13.35 12 15 12H18V6H24V12H48V6H54V12H57C58.65 12 60.0625 12.5875 61.2375 13.7625C62.4125 14.9375 63 16.35 63 18V60C63 61.65 62.4125 63.0625 61.2375 64.2375C60.0625 65.4125 58.65 66 57 66H15ZM15 60H57V30H15V60Z" fill="#1D1B20"/>
</svg>
