<?xml version="1.0" standalone="no"?>
<!DOCTYPE svg PUBLIC "-//W3C//DTD SVG 20010904//EN"
 "http://www.w3.org/TR/2001/REC-SVG-20010904/DTD/svg10.dtd">
<svg version="1.0" xmlns="http://www.w3.org/2000/svg"
 width="1024.000000pt" height="1024.000000pt" viewBox="0 0 1024.000000 1024.000000"
 preserveAspectRatio="xMidYMid meet">
<metadata>
Created by potrace 1.16, written by Peter Selinger 2001-2019
</metadata>
<g transform="translate(0.000000,1024.000000) scale(0.100000,-0.100000)"
fill="#000000" stroke="none">
<path d="M4140 8270 c-1272 -6 -1165 0 -1302 -72 -115 -61 -230 -183 -293
-311 -70 -142 -66 47 -62 -2802 2 -2449 3 -2573 21 -2630 32 -106 91 -205 169
-286 82 -83 151 -128 259 -167 l73 -27 2078 -3 c2279 -2 2149 -6 2283 57 137
64 251 175 314 306 73 150 71 116 68 944 l-3 743 -33 29 c-51 45 -116 35 -152
-23 -19 -32 -20 -51 -20 -756 0 -707 0 -724 -21 -785 -46 -138 -157 -244 -299
-287 -64 -20 -91 -20 -2130 -18 l-2065 3 -65 31 c-117 56 -196 139 -242 252
-23 56 -23 64 -28 554 l-5 496 -24 26 c-14 14 -32 26 -40 26 -10 0 -6 7 11 18
62 38 58 -111 58 2089 0 1985 0 2011 20 2068 44 127 130 227 240 279 l65 31
1588 3 1587 2 0 -497 c1 -520 6 -613 40 -691 26 -59 91 -127 150 -157 81 -41
137 -45 662 -45 l498 0 0 -1117 c0 -746 4 -1131 11 -1156 5 -20 21 -44 34 -53
52 -34 131 -11 154 44 8 20 11 357 9 1217 l-3 1190 -21 45 c-16 34 -189 212
-676 698 -359 359 -671 664 -691 678 -21 14 -54 31 -75 38 -51 18 -693 23
-2142 16z m2833 -1388 c-236 -1 -442 0 -460 3 -45 8 -91 50 -98 88 -2 18 -6
229 -7 469 l-3 438 498 -498 497 -497 -427 -3z"/>
<path d="M3508 7261 c-31 -25 -45 -78 -32 -122 6 -18 121 -141 318 -339 342
-343 350 -349 425 -316 47 22 605 578 620 619 18 46 13 83 -15 116 -29 35 -67
40 -112 17 -15 -8 -122 -110 -239 -228 -116 -117 -232 -233 -257 -258 l-46
-44 -278 283 c-257 262 -280 283 -317 288 -31 4 -46 0 -67 -16z"/>
<path d="M3539 5806 c-47 -15 -75 -72 -59 -120 6 -18 20 -42 31 -52 20 -18 73
-19 1591 -22 l1570 -2 34 34 c52 52 43 124 -18 157 -30 16 -3100 21 -3149 5z"/>
<path d="M3533 4924 c-18 -9 -39 -31 -48 -51 -23 -48 -4 -101 45 -125 33 -17
98 -18 938 -18 991 0 944 -3 977 60 19 37 19 70 -1 98 -38 54 0 52 -976 52
-800 0 -907 -2 -935 -16z"/>
<path d="M5893 4926 c-52 -24 -76 -87 -52 -140 25 -53 45 -56 444 -56 402 0
410 1 440 60 22 43 18 76 -14 112 l-29 33 -379 2 c-306 2 -384 0 -410 -11z"/>
<path d="M3540 4053 c-27 -10 -49 -35 -60 -69 -9 -27 -8 -40 6 -69 31 -66 28
-66 480 -63 l406 3 30 34 c26 29 30 39 25 74 -3 25 -16 50 -31 66 l-26 26
-408 2 c-224 1 -414 -1 -422 -4z"/>
<path d="M3521 3174 c-30 -21 -51 -71 -44 -106 3 -14 18 -39 35 -55 l29 -28
777 -3 c427 -2 791 0 809 3 43 8 89 48 96 82 7 37 -14 85 -46 106 -24 16 -90
17 -829 17 -727 0 -806 -2 -827 -16z"/>
</g>
</svg>
